<svg xmlns="http://www.w3.org/2000/svg" width="664" height="288" viewBox="0 0 664 288"><path fill="#FFF" d="M406.008 2.956v142.263h142.251V2.956H406.008z"/><path fill="#FFF100" d="M406.008 2.956v142.263h142.251V2.956H406.008zm132.789 59.137c-.235 4.435-1.639 9.955-2.895 13.639-5.002 14.87-10.793 24.074-24.222 24.074-3.954 0-10.965-1.047-13.552-8.082l-.616-1.663-1.096 1.392c-4.201 5.323-10.447 8.39-17.125 8.421-5.125.018-9.241-1.694-11.902-4.971l-.739-.893-.777.856c-2.846 3.142-7.799 4.94-13.589 4.94-4.546 0-8.476-1.54-11.064-4.349l-.702-.764-.739.739c-2.871 2.901-7.404 4.361-13.084 4.232-6.912-.167-11.125-4.023-11.248-10.319-.222-9.708 9.178-30.129 13.071-36.339 2.526-4.146 5.988-6.154 10.608-6.154 3.154 0 5.297.653 6.579 2.008 1.158 1.232 1.392 2.266 1.503 4.768l.124 3.228 1.712-2.747c4.127-6.641 10.953-7.559 17.729-7.559 4.706 0 8.809 1.732 10.46 4.405l.616.992.888-.751c3.474-2.963 8.402-4.602 13.86-4.602 5.951 0 10.263 1.479 12.85 4.398.579.665.973 1.128 1.503 2.255l.665 1.392.998-1.177c3.77-4.466 8.932-6.727 15.327-6.727 5.063 0 8.908 1.343 11.433 3.998 3.152 3.333 3.596 8.022 3.424 11.36z"/><path fill="#EC1C24" d="M406.008 3.001v142h142v-142h-142zm136.551 64.476c-.639 5.166-4.132 14.733-5.989 18.563-4.981 10.263-11.623 18.139-24.45 18.139-6.85 0-12.483-2.182-15.767-6.376-4.821 4.219-10.786 6.432-17.218 6.432-4.957 0-9.335-1.426-12.668-4.071-3.677 2.595-8.646 4.04-14.155 4.04-4.6 0-8.745-1.26-11.979-3.596-3.591 2.386-8.277 3.566-13.799 3.431-9.162-.215-15.508-6.038-15.68-14.48-.246-11.221 9.212-31.759 13.664-38.867 3.333-5.472 8.413-8.424 14.66-8.424 6.764 0 9.211 1.937 10.417 4.397 5.214-4.433 12.139-4.691 17.07-4.691 5.436 0 8.855 1.445 11.745 3.756 4.022-2.404 8.622-3.658 14.094-3.658 6.998 0 12.2 1.636 15.829 5.214 4.243-3.517 9.531-5.122 15.471-5.122 7.847 0 13.012 2.835 16.038 7.047 4.279 5.944 3.504 11.933 2.717 18.266z"/><path fill="#231F20" d="M405 2.001v144h144v-144H405zm142 2v140H407v-140h140z"/><path fill="#231F20" d="M542.11 45.264v-.985h.665c.493 0 .739.172.739.493 0 .247-.16.493-.666.493h-.738zm2.391 2.033l-.419-.715c-.357-.64-.455-.733-.763-.838v-.024c.604-.074.961-.456.961-.998 0-.566-.357-1.004-1.134-1.004h-1.774v3.579h.739v-1.466h.136c.308 0 .443.037.579.179.148.142.358.45.493.708l.283.579h.899zm-1.762-4.571a2.77 2.77 0 0 1 2.784 2.772 2.785 2.785 0 0 1-2.784 2.779 2.764 2.764 0 0 1-2.76-2.779 2.75 2.75 0 0 1 2.76-2.772zm0-.69a3.45 3.45 0 0 0-3.45 3.462c0 1.91 1.54 3.45 3.45 3.45a3.455 3.455 0 1 0 0-6.912zM523.938 45.744c-7.454 0-12.604 2.951-16.09 7.078-.591-1.238-1.035-1.78-1.663-2.489-2.846-3.222-7.442-4.731-13.589-4.731-6.024 0-11.039 1.879-14.513 4.836-1.812-2.945-6.111-4.886-11.31-4.886-6.789 0-14.193.961-18.579 8.04-.098-2.55-.333-3.9-1.762-5.415-1.75-1.842-4.559-2.323-7.306-2.323-4.99 0-8.747 2.181-11.458 6.628-3.918 6.271-13.442 26.895-13.22 36.887.136 6.456 4.472 11.101 12.209 11.286 6.049.148 10.805-1.479 13.823-4.522 2.711 2.945 6.851 4.669 11.803 4.669 5.508 0 11.052-1.651 14.329-5.273 2.76 3.388 7.109 5.366 12.678 5.335 7.306-.037 13.712-3.499 17.902-8.796 2.291 6.258 8.119 8.735 14.488 8.735 13.947 0 20.07-9.585 25.171-24.751 1.146-3.413 2.685-9.117 2.932-13.91.43-7.964-2.946-16.398-15.845-16.398zm-92.785 38.12c7.208-1.257 9.031 1.355 8.797 3.77-.677 7.232-7.318 8.846-13.072 8.711-4.189-.098-7.934-2.008-8.045-6.863-.185-8.482 8.476-28.115 12.542-34.62 1.885-3.092 4.177-4.62 7.835-4.62 3.463 0 4.325 1.78 4.276 3.912-.136 5.685-9.326 22.958-12.333 29.71zm23.483-6.666a77.985 77.985 0 0 0-2.107 6.863c2.366-.591 4.152-1.004 7.182-.924 3.474.086 5.692 1.516 5.692 4.387 0 6.948-7.676 8.993-13.01 8.993-5.852 0-10.99-3.339-10.99-9.733 0-7.503 4.066-18.875 7.885-26.452 4.682-9.302 9.462-10.54 17.717-10.54 3.622 0 7.799 1.552 7.799 4.971 0 4.744-4.016 6.555-8.008 6.782-1.7.092-4.312.191-5.877.08 0 0-1.343 2.02-2.735 5.618 7.367-1.035 10.497.641 9.253 4.904-1.676 5.766-6.678 6.148-12.801 5.051zm36.283-17.938c-1.983 0-3.29 1.269-4.263 2.624-2.143 3.006-6.763 15.043-7.491 19.984-.493 3.388.973 4.078 2.563 4.078 2.562 0 5.446-2.711 6.419-7.196 0 0-4.879-.11-3.536-4.442 1.306-4.195 3.795-5.106 7.898-5.279 8.094-.332 7.293 5.649 6.653 8.846-2.107 10.349-9.475 18.671-19.91 18.671-7.121 0-11.556-3.949-11.556-11.23 0-5.186 2.562-13.33 4.607-18.086 4.337-10.14 8.896-17.242 20.489-17.242 6.961 0 12.456 2.5 11.643 9.024-.592 4.78-2.982 7.59-7.331 7.929-1.22.092-6.197-.031-4.546-4.737.579-1.65.813-2.944-1.639-2.944zm43.799 8.562c-1.22 6.099-3.98 13.324-6.974 18.708-4.879 8.778-10.805 10.01-15.992 9.949-5.174-.062-11.014-1.971-11.064-9.961-.025-5.735 2.452-13.83 4.546-19.14 3.659-9.622 7.405-17.47 19.233-17.329 13.787.168 11.335 12.432 10.251 17.773zm-9.831-6.012c-.148 3.678-5.544 18.407-7.466 21.659-.826 1.41-1.762 2.575-3.45 2.575-1.479 0-2.131-1.047-2.168-2.243-.111-3.321 5.988-19.984 8.082-22.694.924-1.429 1.947-1.663 3.142-1.645 1.724.019 1.909 1.27 1.86 2.348z"/><g fill="#FFF"><path d="M65.325 238.983c.228-.271-.08-.961.16-.443-.05.456-.102.795-.16.443zM9.341 259.004c-.909-2.84 1.45-.856 1.188-2.834.022-.148.792 1.368.78.936-.481-2.316 1.278-1.798 2.945-.782l.179.425c.311.185-.24-1.214.031-1.127l.401.733c-.407-.807.095-.524-.167-1.146l.862 1.176-.406-.93c-.927-2.254.73-.209.477-1.503l.293.579c-.136-1.602.733-1.768 1.13-2.6l.669 1.251c-.484-.961-.407-1.306-.333-1.59.604.924-.175-1.047.317-.635l.099.228c-.394-1.103.542.462.012-.826l.505.708c-.669-1.404.604.585.357-.172l-.154-.284c-.061-.4.37.259.355-.037l.095.154c.068-.505.622.179.052-.887.545.807-.046.524.758 1.694.265-1.564 1.287-1.78 2.147-2.242l.681.881c-.021-.252.225-.357.025-.949l.413.554c.36.327-.432-1.275-.01-.875l.453 1.072c-.277-.918-.009-.881.028-1.245l.255.665c-.286-1.053.447.025.314-.665l.25.659c.647.622-.573-1.356-.117-1.023l.305.727c-.348-1.245.194-1.047.218-1.546l.12.265c.169-.265.591-.031.607-.666.234.234.718 1.552.856 1.195-.622-1.257.176-.727-.665-2.089.314.098.887.407.822-.098.132.53.844 1.497.718 1.688l.505.715c.225.524-.225-.117.129.517.068-.093.083-.727.262-.561-.203-.856-.742-2.39-.545-2.68.105.548.733 1.368.748 1.62l-.758-2.6c.062-.105.486.992.468.604l-.293-.862c.105.136.24-.48.86.752l.283.733.132-.61.08.167c.2.141.086-.678-.355-1.325-.098-.006.376.746.09.431-.253-.764-.148-1.06.018-1.146l.332.924c-.221-1.084-.117-1.503-.046-2.033-.265-.604.397 1.134.216.838.705.684.154-1.485.976-.382 0 .117-.407-.85-.33-.684.197.013.573.887.536.517.234.505.056-.221.095-.424-.108-.389.136.234.068.332-.044-.499.216-1.546.884-.949-.154-.332-.324-1.337-.231-1.337l.314.813c.277.444.234-.191.539.486-.246-1.041-.298 1.103-.388.265.345.635-.225-1.41.191-.302.144-.098-.08-1.06.388-.388-.098-.105.342 1.164.443 1.047l-.028-.752-.021-.375c-.32-.783.25.018-.203-.819.296.628.167-.536.681.764l.394 1.029c.067-.117-.286-1.14-.397-1.621l.225.443c-.631-1.564.29.031-.093-1.219.428.45.545-.185 1.038.745-.034-.542-.12-1.164.2-.912l.117.573c.302.413.16-.018.163-.314.071.247.598.819.942 1.312l-.613-1.872c.758 1.478.046-1.189.795.148l.354 1.189c.754 1.491-.154-1.245.376-.592l-.561-1.263c.419.758.065-.869.551.45-.102-.499.447.32-.064-.918.804.918.727-.985 1.817 1.189-.025-.234.194-.074-.074-.708-.357-.672.059.548-.157.086l-.141-.585c.231.24.36.302.637 1.398.558.677-.517-2.255.016-1.879.179.53.277.715.345.592l-.132-.961c.305.129.56 1.152.887 2.033.065-.191.225-.209.04-.887l.549 1.072c-.394-.77-.096-.579-.12-.813l.025.234c.157.375.209.086.24-.044-.213-.548-.431-.72-.566-.85l-.031-.85c.283.887.416.554.545.616.173.141-.151-.826-.111-.813.16.449.206.018.342.677.016.166-.24-.407-.16.012.191.314.459 1.109.404.474-.037-.468-.628-1.713-.222-1.238l.197.924.357.382-.267-.801.151.37c-.231-.862.216-.37-.062-1.33.074-.117.404.48.533.542l.003.074c.277.425.329.062.246-.511l.056.172c.086.044.194-.136.124-.628.363.548 1.056 3 .902 1.928.151-.086-.228-1.565-.462-2.045.474.431.394-.992 1.072.154l-.126-.752c.539.16.638-1.287 1.472.173l.382 1.268c-.114-.758.355.703.016-.542-.234-.727-.33-1.084-.542-1.33.139-.493.546-.623.909.031l-.191-.795c.33 1.176.582 1.306.613.85l-.185-.714.314.708c-.009-.247-.366-1.51-.016-.869l.262.758c-.009-.628-.058-1.67.287-1.103l.431 1.004-.219-1.053c.469.548.681.585 1.017 1.466-.086-2.316.659-2.593 1.296-2.581l.111.542c.283.468-.144-.961.062-.61l.416 1.743c.363.518.067-1.004.16-1.281-.142-.708-.013.487-.197-.425-.03-.252.45.481.235-.604l.367 1.651.018-.554c.456 1.219.132 2.328.671 3.831l.083-.197c.376 1.097-.028 1.343.366 1.663.006-.566-.234-2.15-.462-2.593.216-.37-.453-2.594-.117-2.575.225.609-.218.209.04 1.072.342.838.185-.548.385-.278-.237-.37-.354-1.484-.302-1.706.274.474.12 1.047.372 1.109l-.267-1.54c-.222-1.436.323.332.215-.789.284.973.256 2.347.607 2.778-.243-.936.034-1.361-.397-2.753.157.252.324 1.004.376 1.608.262.554-.018-1.824.416.056l-.151-.986.397 1.041c.126-.006.132-1.417.413.062.009-.16.302-.16-.003-1.158-.298-.579-.055.801-.425-.561.344 1.097.225-.209.256-.609l.126.566c.018-.24.185-.142.105-.776l.188.85-.102-.887c.169-.486.348 1.521.539 1.214l-.056.72c.013-.16.247.647.308.339l-.268-2.409c.074-.382.225.881.213.037l-.003 1.004c.021.264.357 1.287.53 1.226.061-.308.043-1.497-.219-1.891.09-.037.302.419.332 1.023l-.086-1.392.785 1.965.046 1.38.12-.019c.025 1.103.216.801.317 1.947.111.16.142-.24.17-.56-.542-1.768-.129-2.514-.459-4.14.299-.486.847 3.998.823 1.386-.126-.431-.136-1.706-.293-1.201.253.154-.089-1.669.281-1.01-.099.689.449 1.651.308 2.661-.059-.548-.216-.4-.234-.246.185.628.228 1.675.447 1.657.111-.167.29-.216.141-1.078-.135-.942-.194.117-.24-.85.235-.351.469 1.091.361-.604-.157.148-.333-.826-.419-1.479l.16-.413.04.635c.394.425-.049-1.152.305-1.011l.305 1.232c.056 1.084-.53-.431-.247 1.312.209.05.17-.843.422-.4l-.105.351c.083.056.431 2.372.554.986l-.098-1.281.545-1.017c.083 1.287.394.098.283 1.423-.179-.746-.659-.628-.637.604.286 1.503-.281-.197-.17 1.337.259.019.413 1.516.561 2.483l.12-.499c-.071-.93-.16-.912-.268-1.855.308.228.521-.308.598-1.219.138.45.194 1.373.092 1.472.305-.302.681-.191 1.016.061-.32-1.497.33-.382.099-1.626-.197-.326-.431-1.38-.382-2.07l.114.973c.086-.826.314 1.306.363 0-.286.512.065 1.842.086 3.031.172-.684.046.838.259.819l.641-1.472c.357 1.091.77-.037 1.05-.105.157.592.095 1.935.249 2.156.175-.037-.163-1.435.111-.843l-.018.271c.077-.314.486.875.548-1.053l-.071 1.454c.052.129.093-.203.132-.357l-.012 1.207c.16.992.326-.179.499-.234l-.108-.85c.302-.69.496.154.789-.173l-.025.838.178-.512c-.059.813.083 1.33.188.641l-.471 2.088.086-1.848c-.05-.715-.32-.469-.37.344l.188-.413c.015 1.171-.136 1.133-.213 1.922.049-.055.117.29.132-.08-.105.579-.204.677-.367.715l-.012-1.053c-.018 1.029-.172 1.355-.373 1.084-.154-1.183-.37.794-.597.48.074-1.047.185-1.891.326-2.322-.16-.512-.169.037-.329-.474-.062.788-.09 1.978-.265 2.464l-.031-.77c-.166.407-.129 1.547-.351 1.343l-1.06-.394-.056-.758c-.059 1.651-.493.641-.65 1.38-.425-.715-.712.782-1.023-.524-.585.634-1.05 1.244-1.737 1.004l-.049-1.109c-.003.826-.17-.634-.265-.456.265.869.006 1.152.031 1.836-.422-.862-.654.136-.773.985l-.139-.758c-.012 1.491-.533.32-.902.167-.096-.308-.287-1.004-.37-.893.052 1.257-.056 1.201-.163 2.014-.185.049-.545-.179-.835-.609-.345 1.872-1.287.954-1.774 2.15l-.262-.869c-.243 2.045-1.518.548-1.867 1.645l-.345-1.503c-.314-.413-.324.493.016 1.534-.314-.413-.262.831-.727-.363-.271-.234-.037.739-.136.973-.542-.462-.653-.339-.923.08l.117.056c-.059-.333-.247-.961-.363-1.023-.009.455-.616-.228.059 1.484-.696-.875-.623 1.146-1.429-.098l.185.93c-.32.142-.992-.714-.988.197-.132-.222-.185-.844-.339-.844l.194.924c-.234 1.078-1.398-.536-1.814-.123-.551 1.226-1.62 1.078-2.402 1.522l-.124-.351c.225 1.423-1.173-1.115-.635.942-.191-.296-.311-.061-.524-.745.145 1.016-.973-.665-.825.647l.006-.216c-.626-.622-.493.542-1.109 0l-.136-.64c-.397-.598.277 1.577-.468-.037-.071.049.286.85.311.782-1.011-.314-1.371 1.084-1.981 1.793-.973-.739-1.216-2.741-1.134-1.33-.169-.296.247.64.093.302.031.53-1.057-1.713-.804-.807.484.985.163.597.425 1.214-.622-.505-1.087-1.374-1.023-.493l-.216-.542c.342 1.626-.378.986.124 2.815l-4.309 3.782c-1.784.486-2.982 2.027-5.092 1.965-1.084-1.146-1.106-1.103-1.232-.32l-.237-.48c.564 1.103-.237.265.281 1.33l-1.709 1.078c.033-.167-.404-1.084-.481-.955l.259.764-.185-.29.487 1.091c-1.004 1.798-3.777.419-5.104 1.583-.613-.24-.878.462-1.127.911-1.987-.758-3.73-1.269-4.202.394.002.006-1.586-2.778-1.5-3.708zM65.06 239.125c-.025-.616-.173-.943-.025-1.781l.025 1.781z"/><path d="M60.609 233.057c.006.185-.083-.246-.105-.344.052-.056.077-.579.142-.265l-.037.609zM59.386 232.774c-.031-.554.191-1.01.342-1.09l-.342 1.09zM58.019 230.593c-.155-.462-.157-.708-.016-.702l.016.702zM58.077 231.85l-.262-.616c.059.481.188-.302.262.616zM55.348 230.457c-.056.049-.098.53-.252-.061.126.406.163-.746.252.061zM54.399 231.523l-.086.043-.065-.708zM36.159 239.224l.006-.296.188.523zM28.474 242.562c.043.363-.284-.438-.336-.499.068-.098.247.629.336.499zM25.6 246.955l.025-.031.484 1.022z"/><g><path d="M58.807 176.919c.326-.129.419-.869.357-.308-.268.37-.484.635-.357.308zM2.466 167.118c.561-2.92 1.621-.037 2.326-1.897.086-.117.028 1.583.218 1.202.681-2.261 1.922-.949 2.846.751l-.049.456c.175.314.366-1.176.554-.967l-.006.831c.034-.9.327-.407.397-1.078l.17 1.448.098-1.011c.277-2.421.712.173 1.106-1.078l-.028.647c.64-1.467 1.451-1.189 2.178-1.719l-.028 1.417c.046-1.072.271-1.337.468-1.546.074 1.096.345-1.004.567-.401l-.025.247c.185-1.152.24.665.397-.715l.093.862c.102-1.552.231.807.382.025l.003-.32c.139-.382.191.407.317.142l.006.179c.296-.406.44.456.462-.745.077.967-.286.431-.16 1.848.958-1.238 1.921-.93 2.861-.911l.157 1.103c.102-.234.36-.203.471-.819l.08.684c.151.462.243-1.324.406-.764l-.123 1.152c.2-.93.406-.77.61-1.072l-.102.708c.259-1.059.366.234.579-.425l-.102.69c.25.862.16-1.46.389-.942l-.09.782c.299-1.263.659-.825.918-1.25l-.028.29c.265-.142.512.265.826-.278.086.314-.132 1.701.151 1.46.074-1.405.496-.554.435-2.15.218.234.551.788.739.314-.141.524-.003 1.718-.203 1.823l.09.869c-.059.567-.136-.209-.139.518.098-.05.416-.598.486-.364.235-.843.512-2.451.814-2.605-.173.536-.034 1.552-.142 1.78l.601-2.637c.102-.061-.062 1.103.105.758l.163-.899c.025.172.434-.302.366 1.078 0 .548-.182.271-.114.776l.404-.468-.013.185c.102.216.394-.548.333-1.331-.08-.049-.04.838-.126.419.148-.788.375-.992.557-.992l-.16.973c.33-1.053.619-1.368.93-1.798.065-.654-.209 1.183-.216.838.262.942.835-1.22.998.141-.059.105.065-.936.049-.751.16.098.059 1.047.204.708-.044.554.154-.167.283-.32.095-.401 0 .271-.102.32.2-.456.918-1.245 1.195-.394.031-.37.366-1.33.447-1.281l-.126.856c.018.524.286-.049.222.69.29-1.029-.78.819-.453.043-.016.721.481-1.337.302-.172.17-.013.441-.961.512-.148-.031-.135-.268 1.183-.129 1.134l.339-.671.16-.339c.105-.838.2.136.219-.813-.05.696.397-.382.209.998l-.16 1.09c.11-.068.302-1.134.44-1.608l-.025.499c.219-1.675.228.167.508-1.115.144.604.545.105.514 1.158.228-.487.459-1.072.601-.696l-.172.554c.056.512.141.068.286-.191-.059.247.108 1.004.16 1.608l.382-1.934c-.071 1.657.613-1.016.597.517l-.274 1.214c-.08 1.663.471-1.17.604-.339l.132-1.368c-.013.862.474-.733.249.653.151-.481.219.499.389-.831.228 1.195 1.081-.499.951 1.922.093-.209.197.037.278-.647.025-.764-.216.505-.173-.006l.163-.573c.077.32.157.438-.139 1.521.139.869.65-2.211.918-1.626-.105.548-.114.758.003.684l.355-.905c.191.265-.083 1.281-.237 2.205.148-.136.286-.068.462-.752l-.058 1.202c.04-.869.197-.548.292-.77l-.095.222c-.046.4.136.179.225.074.086-.579-.016-.832-.065-1.017l.382-.751c-.187.906.083.684.16.801.077.209.274-.795.302-.764-.083.474.163.117-.043.758-.065.148 0-.474-.139-.068.006.37-.151 1.189.111.61.194-.425.298-1.798.409-1.189l-.28.9.114.512.163-.832-.052.401c.225-.862.36-.216.592-1.189.12-.067.108.616.185.733l-.031.062c.025.505.243.216.453-.326l-.04.184c.052.074.231-.03.409-.493.04.653-.566 3.129-.179 2.119.173 0 .567-1.472.607-2.008.185.61.81-.671.819.659l.262-.721c.373.407 1.158-.807 1.149.875l-.295 1.288c.271-.715-.047.788.277-.462.157-.752.25-1.109.191-1.423.354-.363.761-.271.745.474l.228-.782c-.296 1.183-.148 1.417.102 1.035l.191-.708-.08.764c.11-.216.425-1.491.406-.758l-.144.782c.295-.548.764-1.479.776-.819l-.129 1.084c.102-.098.382-.69.332-1.023.124.708.284.844.136 1.774 1.06-2.063 1.82-1.934 2.347-1.614l-.17.53c.009.542.348-.912.348-.505l-.505 1.719c.05.628.549-.838.764-1.035.228-.684-.246.413.044-.462.098-.24.141.635.493-.413l-.505 1.614.29-.474c-.216 1.281-1.029 2.088-1.318 3.659l.167-.129c-.222 1.133-.677 1.152-.505 1.626.283-.493.857-1.984.884-2.483.36-.216.893-2.482 1.164-2.297-.111.64-.286.074-.493.954-.123.893.425-.388.456-.056-.013-.437.434-1.46.588-1.633-.003.549-.413.968-.234 1.146l.536-1.466c.517-1.356.108.443.566-.585-.24.985-.939 2.168-.859 2.716.259-.936.699-1.17 1.022-2.587l-.474 1.577c-.056.61.881-1.595.317.252l.36-.93-.178 1.103c.108.056.81-1.171.314.252.086-.136.332.006.567-1.01.037-.654-.438.665-.08-.696-.247 1.121.292-.067.517-.4l-.173.554c.132-.203.222-.037.469-.628l-.262.831.354-.819c.382-.339-.459 1.491-.148 1.318l-.401.598c.09-.129-.111.684.09.45l.964-2.224c.252-.295-.247.869.16.129l-.496.875c-.114.24-.336 1.287-.163 1.325.203-.24.773-1.282.751-1.75.093.006.047.512-.228 1.047l.616-1.25-.312 2.089-.643 1.219.108.043c-.524.973-.213.801-.696 1.848.013.191.24-.148.419-.4.422-1.811 1.134-2.236 1.663-3.813.493-.277-1.269 3.881.006 1.602.105-.431.73-1.547.351-1.189.132.259.752-1.491.736-.739-.428.554-.447 1.657-1.065 2.464.225-.505.021-.456-.074-.326-.157.634-.635 1.558-.447 1.651.175-.093.348-.044.656-.862.354-.888-.222.006.219-.857.369-.191-.148 1.176.604-.351-.209.056.129-.881.382-1.484l.336-.277-.277.566c.12.561.53-1.023.758-.727l-.357 1.219c-.493.967-.228-.635-.86 1.017.151.148.564-.654.554-.142l-.265.252c.046.086-.819 2.267-.025 1.127l.554-1.158.964-.616c-.57 1.158.281.277-.471 1.368.222-.727-.24-.862-.835.216-.508 1.441-.136-.308-.807 1.078.209.141-.407 1.515-.767 2.427l.351-.382c.4-.831.317-.862.696-1.731.145.345.592-.019 1.109-.77-.108.462-.52 1.287-.656 1.318.406-.105.665.167.819.554.48-1.454.468-.173.896-1.361-.003-.376.326-1.411.712-1.984l-.392.906c.487-.678-.388 1.281.308.172-.496.308-.869 1.626-1.441 2.668.483-.512-.379.745-.194.838l1.272-.968c-.25 1.122.662.345.927.425-.163.585-.89 1.719-.874 1.99.169.049.588-1.325.517-.678l-.148.222c.218-.234-.037.992.982-.641l-.785 1.22.289-.247-.619 1.041c-.364.936.36.006.536.037l.336-.782c.601-.45.339.37.746.234l-.443.715.409-.357c-.459.671-.604 1.183-.166.64l-1.448 1.577 1.004-1.552c.317-.647-.031-.566-.481.117l.36-.265c-.573 1.016-.678.912-1.142 1.552.067-.019-.05.314.151 0-.379.443-.512.486-.665.437l.52-.918c-.532.887-.825 1.091-.853.758.465-1.09-.708.512-.739.129.585-.869 1.103-1.552 1.438-1.848.123-.518-.16-.05-.037-.573-.447.654-1.066 1.663-1.457 2.002l.36-.677c-.342.271-.881 1.269-.964.992l-.681-.856.332-.684c-.874 1.398-.73.314-1.229.881.003-.825-.976.333-.589-.949-.8.271-1.487.573-1.94.031l.508-.985c-.407.715.172-.635.006-.524-.209.881-.564 1.004-.881 1.608.071-.949-.604-.204-1.121.48l.255-.727c-.742 1.287-.597.012-.831-.302.071-.308.255-1.004.136-.949-.579 1.115-.638 1.017-1.128 1.676-.175-.056-.366-.425-.394-.937-1.204 1.46-1.537.204-2.523 1.004l.207-.881c-1.199 1.663-1.528-.265-2.35.524l.443-1.472c-.062-.518-.508.271-.733 1.343-.062-.518-.616.591-.425-.672-.114-.332-.391.628-.585.782-.228-.665-.378-.609-.804-.382l.071.105c.111-.32.262-.961.194-1.072-.228.394-.404-.493-.672 1.324-.154-1.103-1.072.696-1.139-.776l-.296.9c-.336-.037-.481-1.109-.918-.314l.126-.9-.283.9c-.715.825-.908-1.146-1.451-.992-1.05.801-1.87.155-2.732.16l.065-.363c-.49 1.349-.443-1.546-.98.512-.015-.351-.228-.204-.077-.906-.363.955-.496-1.047-.998.167l.111-.191c-.228-.85-.672.234-.93-.542l.197-.623c-.05-.714-.524 1.51-.376-.265-.08.013-.17.888-.114.838-.693-.764-1.663.277-2.507.597-.462-1.115.286-2.982-.315-1.713-.002-.339-.098.677-.067.308-.228.481-.067-2.008-.29-1.09-.062 1.09-.144.597-.219 1.263-.28-.746-.259-1.731-.622-.93l.08-.579c-.49 1.59-.789.677-1.235 2.519-1.826.129-3.619 1.023-5.397 1.202-1.721-.444-3.452.314-5.186-.77-.373-1.522-.41-1.497-.884-.881l.031-.536c-.052 1.244-.326.117-.394 1.306-.653-.24-1.266.098-1.94.105.108-.129.172-1.146.043-1.065l-.138.788-.019-.339-.105 1.188c-1.685 1.078-3.363-1.478-5.024-1.109-.403-.505-.954-.025-1.373.247-1.312-1.633-2.545-2.926-3.712-1.706.004-.004-.039-3.214.469-3.978zM58.518 176.913c.29-.549.329-.9.874-1.552l-.874 1.552z"/><path d="M57.852 169.497c-.09.166.052-.253.083-.345.074-.025.351-.462.249-.16l-.332.505zM56.968 168.659c.249-.493.665-.783.828-.777l-.828.777zM56.903 166.102c.102-.474.225-.696.339-.622l-.339.622zM56.331 167.217l.086-.659c-.188.444.308-.173-.086.659zM54.729 164.679c-.074.013-.348.407-.185-.185-.092.407.508-.561.185.185zM53.404 165.135l-.092-.006.296-.647zM34.361 162.936l.147-.253-.092.542zM26.315 162.098c-.139.339-.034-.517-.044-.604.103-.049-.095.672.044.604zM21.812 164.525l.034-.012-.08 1.127z"/></g><g><path d="M136.792 91.539c.221.274.954.129.403.246-.431-.144-.751-.267-.403-.246zM125.238 35.192c2.902-.669.696 1.484 2.68 1.389.145.033-1.438.662-1.01.684 2.347-.274 1.654 1.407.471 2.941l-.441.136c-.212.286 1.229-.127 1.109.132l-.764.323c.838-.323.505.142 1.149-.058l-1.263.733.97-.312c2.331-.702.123.73 1.432.601l-.607.234c1.602.015 1.67.877 2.449 1.346l-1.309.532c1.001-.378 1.337-.274 1.608-.172-.983.502 1.059-.074.591.37l-.231.074c1.134-.28-.517.486.816.09l-.761.428c1.469-.514-.65.53.136.363l.293-.123c.403-.018-.296.339 0 .351l-.163.08c.493.114-.247.588.872.136-.86.452-.515-.096-1.765.573 1.512.413 1.605 1.438 1.962 2.322l-.954.576c.255.003.329.256.942.12l-.604.345c-.366.32 1.315-.286.869.083l-1.115.329c.939-.175.872.083 1.229.157l-.693.179c1.078-.169-.074.435.622.376l-.681.175c-.693.564 1.411-.419 1.026-.006l-.758.218c1.278-.206 1.016.299 1.509.379l-.277.086c.24.194-.04.579.585.665-.262.201-1.627.53-1.291.703 1.324-.472.705.249 2.156-.422-.136.298-.515.822-.003.813-.539.074-1.583.659-1.762.514l-.767.413c-.545.163.142-.206-.53.071.083.074.712.157.52.314.875-.105 2.47-.462 2.717-.232-.558.04-1.448.561-1.7.546l2.67-.443c.092.071-1.044.363-.662.388l.893-.188c-.148.086.447.293-.856.754-.505.209-.32-.064-.761.191l.585.2-.175.059c-.163.178.659.163 1.358-.194.019-.096-.789.283-.437.04.785-.16 1.066-.021 1.13.148l-.961.219c1.103-.09 1.506.062 2.02.194.631-.188-1.174.252-.857.114-.773.604 1.448.327.25.995-.121-.013.893-.293.718-.237-.034.191-.949.452-.582.462-.53.166.216.08.406.144.404-.058-.249.105-.332.025.496.018 1.5.397.819.979.354-.111 1.371-.154 1.358-.061l-.844.206c-.478.216.154.252-.554.468 1.063-.114-1.057-.428-.216-.413-.671.259 1.426-.047.278.225.08.154 1.062.049.332.425.114-.083-1.201.191-1.096.305l.749.065.372.025c.819-.216-.049.24.838-.095-.659.212.512.228-.841.57l-1.072.255c.105.08 1.164-.139 1.654-.185l-.468.163c1.633-.419-.064.277 1.223.065-.502.36.114.554-.875.918.542.033 1.173.033.875.308l-.579.046c-.453.24-.006.157.286.197l-1.426.748 1.94-.357c-1.559.545 1.14.216-.277.764l-1.226.191c-1.58.542 1.257.016.533.447l1.325-.378c-.811.308.853.179-.521.478.502-.031-.385.394.918.061-1.029.662.862.85-1.442 1.614.232.009.04.203.706.028.717-.255-.549-.021-.059-.167l.594-.059c-.271.194-.348.312-1.469.431-.754.45 2.301-.194 1.855.277-.549.099-.752.167-.641.253l.973.006c-.175.277-1.22.388-2.138.582.178.09.17.243.869.163l-1.137.382c.819-.278.579-.013.819 0l-.24-.013c-.391.098-.117.191.013.24.573-.129.773-.317.924-.431l.841.09c-.915.151-.607.327-.687.443-.17.148.841-.028.823.009-.471.092-.05.2-.724.237-.163-.009.44-.176.013-.157-.339.141-1.164.286-.527.326.468.031 1.786-.37 1.257-.04l-.942.059-.431.293.835-.145-.394.095c.891-.102.336.262 1.328.132.108.09-.536.324-.616.441l-.067-.009c-.465.209-.114.314.468.317l-.185.028c-.052.077.111.209.607.213-.594.274-3.126.588-2.039.594.064.16 1.577.009 2.094-.144-.502.397.924.532-.314 1.019l.767-.006c-.243.499 1.176.816-.394 1.408l-1.312.179c.766 0-.752.234.532.095.758-.117 1.125-.154 1.402-.324.481.204.474.654-.209.893l.813-.058c-1.211.135-1.38.36-.936.465l.73-.067-.749.194c.243.031 1.549-.117.857.123l-.785.136c.616.093 1.651.213 1.035.459l-1.059.259 1.075-.04c-.623.369-.696.57-1.621.751 2.301.299 2.446 1.078 2.326 1.7l-.554.019c-.505.197.97.021.591.163l-1.789.111c-.573.265.979.237 1.238.376.721-.018-.474-.096.45-.12.259.013-.548.358.558.336l-1.691.071.542.114c-1.279.234-2.316-.271-3.89-.003l.179.114c-1.14.176-1.315-.256-1.697.071.557.105 2.156.141 2.636-.006.324.271 2.634.006 2.553.332-.638.114-.169-.249-1.065-.148-.881.188.511.277.209.422.406-.163 1.521-.086 1.734.006-.515.182-1.05-.065-1.155.169l1.564.009c1.448.033-.382.255.742.348-1.007.105-2.362-.163-2.849.105.97-.071 1.343.274 2.782.098-.271.111-1.038.139-1.645.083-.594.154 1.802.305-.126.394l.998.028-1.096.203c-.016.123 1.373.385-.132.394.157.037.108.324 1.142.203.628-.188-.776-.197.625-.314-1.136.142.17.255.558.36l-.579.022c.234.061.108.206.746.243l-.869.028.89.065c.45.255-1.556.061-1.287.308l-.699-.188c.154.044-.678.123-.389.24l2.421.179c.361.142-.905.056-.071.201l-.988-.185c-.268-.028-1.328.11-1.3.29.293.117 1.466.317 1.897.135.025.096-.462.219-1.063.136l1.383.176-2.079.403-1.352-.213-.006.12c-1.084-.182-.831.059-1.974-.052-.188.077.185.185.477.271 1.864-.197 2.477.351 4.149.336.419.385-4.084.064-1.519.539.443-.043 1.697.194 1.238-.056-.206.216 1.654.232.934.469-.659-.232-1.709.117-2.674-.213.551.049.441-.132.29-.179-.653.056-1.684-.098-1.712.114.141.142.154.324 1.028.345.952.052-.077-.209.881-.067.299.292-1.164.243.524.468-.12-.185.875-.167 1.531-.124l.37.234-.631-.083c-.493.305 1.142.175.933.496l-1.272.059c-1.072-.157.532-.435-1.235-.499-.093.197.794.332.311.49l-.327-.17c-.067.074-2.412-.043-1.078.348l1.279.154.887.733c-1.279-.172-.175.364-1.451-.006.764-.025.749-.518-.462-.736-1.534-.019.246-.234-1.282-.428-.067.247-1.564.105-2.544.059-.083.058.324.157.471.213.921.11.921.025 1.867.102-.286.255.201.566 1.075.822-.468.047-1.383-.086-1.457-.203.231.358.052.696-.265.97 1.531-.009.311.397 1.574.425.357-.126 1.438-.142 2.104.043l-.98-.083c.795.249-1.34.04-.068.354-.447-.382-1.817-.311-2.985-.53.635.305-.831-.123-.856.086l1.315.918c-1.14.12-.117.751-.108 1.035-.61.031-1.916-.311-2.162-.209.006.179 1.438.144.804.286l-.259-.077c.289.138-.954.283.918.748l-1.408-.373c-.136.022.185.132.327.204l-1.18-.268c-1.001-.052.107.351.129.53l.853.074c.613.437-.246.447.013.795l-.816-.204.468.284c-.782-.228-1.315-.207-.662.043l-1.95-.9 1.79.481c.708.102.52-.209-.262-.428l.363.265c-1.146-.234-1.078-.367-1.832-.613.04.062-.311.05.046.145-.542-.225-.619-.339-.625-.499l1.035.209c-1.007-.234-1.294-.45-.989-.582 1.183.105-.705-.517-.354-.665 1.01.287 1.817.567 2.208.795.53-.046-.006-.169.53-.216-.761-.221-1.916-.499-2.357-.766l.758.132c-.366-.243-1.487-.444-1.247-.61l.591-.924.755.098c-1.602-.388-.53-.594-1.223-.893.783-.262-.625-.825.715-.865-.511-.681-1.013-1.235-.643-1.839l1.096.16c-.804-.154.656-.04.502-.163-.906.086-1.13-.213-1.808-.314.89-.249.052-.631-.78-.9l.77.003c-1.463-.28-.219-.561-.006-.887.317-.034 1.035-.093.942-.191-1.25-.172-1.176-.265-1.962-.508-.013-.185.271-.487.742-.687-1.786-.647-.721-1.383-1.809-2.043l.896-.105c-1.974-.56-.277-1.528-1.299-2.029l1.537-.093c.462-.234-.425-.388-1.512-.225.465-.234-.767-.373.49-.631.271-.222-.727-.148-.936-.278.558-.443.416-.573.108-.884l-.086.098c.336-.006.983-.09 1.078-.191-.431-.074.32-.554-1.472-.163.973-.533-1.038-.755.311-1.343l-.946.046c-.092-.327.857-.847-.043-.97.237-.096.862-.059.884-.203l-.942.055c-1.032-.372.736-1.26.397-1.712-1.127-.693-.823-1.691-1.14-2.495l.363-.071c-1.435.034 1.275-.982-.835-.73.324-.142.111-.29.816-.404-1.016.009.792-.85-.505-.872l.209.034c.739-.527-.462-.539.167-1.069l.656-.049c.644-.311-1.605.074.098-.447-.04-.071-.884.172-.816.203.447-.93-.893-1.448-1.506-2.113.859-.85 2.873-.85 1.466-.933.317-.132-.665.16-.311.052-.53-.034 1.836-.819.905-.684-1.038.354-.613.092-1.253.274.582-.545 1.503-.893.625-.933l.561-.144c-1.651.144-.924-.481-2.8-.201-.813-1.651-2.304-2.975-3.166-4.553-.262-1.768-1.633-3.074-1.312-5.103 1.257-.943 1.226-.971.468-1.164l.505-.185c-1.161.44-.237-.255-1.356.148-.04-.699-.597-1.13-.869-1.752.163.049 1.122-.29.998-.379l-.782.182.305-.151-1.134.373c-1.66-1.127.028-3.699-.986-5.079.302-.573-.363-.887-.779-1.167.967-1.863 1.651-3.527.059-4.094-.002.003 2.912-1.346 3.823-1.186zM136.709 91.256l1.74.36-1.74-.36z"/><path d="M143.525 88.25c-.182-.034.259-.031.358-.034.046.065.551.191.231.194l-.589-.16zM144.046 87.119c.545.08.951.388.998.548l-.998-.548zM146.454 86.213c.481-.058.727-.009.693.127l-.693-.127zM145.213 86.026l.653-.132c-.478-.038.261.242-.653.132zM147.12 83.63c-.047-.065-.481-.206.135-.247-.434.049.662.314-.135.247zM146.279 82.487l-.025-.092.705.067zM141.597 63.43l.293.046-.543.111zM139.324 55.499c-.367 0 .468-.228.539-.268.089.077-.656.166-.539.268zM135.344 52.191l.025.028-1.072.36z"/></g><g><path d="M203.953 89.537c.062.329.773.591.234.401-.311-.333-.529-.592-.234-.401zM230.208 43.588c2.538 1.525-.517 1.392.986 2.661.083.12-1.485-.548-1.192-.247 1.876 1.398.255 1.99-1.657 2.15l-.409-.206c-.355.034.961.736.705.823l-.77-.311c.823.36.271.428.875.736l-1.407-.385.911.452c2.162 1.122-.397.542.641 1.34l-.598-.262c1.155 1.084.628 1.676.884 2.489l-1.31-.539c.983.431 1.155.721 1.285.964-1.048-.339.819.665.185.631l-.219-.108c1.01.579-.7-.043.533.601l-.838-.237c1.411.656-.831-.105-.154.314l.296.117c.302.256-.447.013-.247.219l-.169-.062c.274.397-.585.204.53.662-.93-.289-.302-.4-1.663-.813.807 1.263.231 1.984-.095 2.781l-1.075-.271c.185.175.074.385.609.708l-.665-.185c-.477-.04 1.152.696.582.634l-1.031-.532c.8.514.585.631.797.918l-.625-.348c.903.61-.339.228.209.656l-.613-.345c-.878-.102 1.309.675.758.681l-.7-.366c1.072.721.551.872.86 1.248l-.262-.129c.052.283-.407.342-.003.813-.324-.046-1.54-.742-1.408-.41 1.284.582.339.623 1.851 1.161-.305.096-.939.173-.564.505-.437-.311-1.598-.638-1.626-.847l-.838-.246c-.508-.259.243-.034-.431-.305.009.102.404.567.16.539.705.511 2.092 1.337 2.135 1.654-.44-.348-1.429-.604-1.608-.783l2.261 1.491c.025.111-1.004-.459-.736-.188l.783.474c-.167-.043.148.483-1.115-.083-.505-.2-.194-.256-.684-.382l.308.52-.169-.08c-.231.006.388.545 1.13.776.074-.049-.761-.342-.348-.262.684.416.804.69.746.844l-.85-.496c.875.674 1.078 1.038 1.377 1.466.588.296-1.032-.616-.709-.496-.958-.12.872 1.171-.443.81-.08-.089.85.401.684.32-.144.098-.995-.336-.724-.09-.502-.24.108.197.213.364.336.231-.253-.099-.268-.204.36.339.869 1.248-.006 1.174.333.163 1.115.8 1.05.853l-.763-.419c-.49-.175-.043.265-.705-.061.859.625-.517-.973.095-.41-.662-.274 1.094.909.068.327-.04.154.758.733-.021.496.135.021-1.017-.669-1.01-.527l.517.539.262.259c.749.4-.187.123.687.49-.628-.299.234.481-.988-.185l-.964-.539c.028.12.958.674 1.352.967l-.453-.201c1.485.798-.218.136.869.838-.616-.099-.295.421-1.266.009.373.373.838.78.431.761l-.456-.348c-.496-.145-.11.093.078.308-.21-.139-.976-.281-1.556-.456l1.666 1.035c-1.525-.675.727.89-.677.32l-1.041-.681c-1.519-.681.939.835.132.644l1.232.619c-.798-.326.536.678-.681-.025.4.308-.527.009.656.641-1.174-.237.148 1.121-2.058.126.17.157-.093.16.517.477.7.296-.403-.373.056-.148l.487.348c-.32-.049-.453-.021-1.374-.671-.844-.191 1.863 1.368 1.241 1.386-.474-.289-.672-.373-.638-.246l.736.634c-.299.071-1.158-.532-1.974-.998.083.176-.018.271.564.669l-1.097-.481c.792.345.45.366.626.53l-.176-.163c-.357-.185-.203.055-.138.17l.964.311.588.601c-.789-.49-.656-.175-.791-.151-.216-.009.659.524.622.536-.416-.24-.154.102-.693-.308-.117-.111.441.17.105-.098-.342-.123-1.059-.558-.597-.12.339.32 1.583.905.983.782l-.755-.567-.505-.083.724.441-.357-.191c.739.505.098.391.933.939.028.129-.604-.129-.733-.102l-.049-.049c-.478-.16-.271.136.169.508l-.157-.099c-.086.019-.043.209.336.53-.619-.197-2.745-1.608-1.916-.912-.05.151 1.201 1.016 1.691 1.245-.628-.062.401.942-.869.468l.589.478c-.515.166.354 1.263-1.229.65l-1.112-.715c.582.484-.727-.327.342.397l1.278.678c.206.425-.006.739-.677.465l.665.478c-1.017-.677-1.272-.628-.983-.277l.607.416-.69-.339c.173.172 1.269.9.601.622l-.69-.401c.431.45 1.176 1.186.56.968l-.967-.49.862.644c-.687-.139-.853-.043-1.675-.496 1.636 1.641 1.334 2.258.903 2.606l-.447-.33c-.505-.175.754.616.378.478l-1.469-1.026c-.597-.17.641.764.773 1.019.579.428-.327-.357.419.194.197.166-.625-.093.259.566l-1.374-.985.367.413c-1.136-.619-1.685-1.605-3.074-2.387l.08.191c-.998-.577-.896-.986-1.383-.992.385.416 1.629 1.42 2.088 1.611.108.388 2.079 1.614 1.842 1.79-.566-.311 0-.274-.764-.749-.8-.409.253.499-.064.416.413.135 1.253.869 1.374 1.059-.508-.188-.798-.684-1.007-.585l1.235.954c1.134.906-.44-.056.404.69-.86-.539-1.79-1.543-2.319-1.654.807.539.918.998 2.159 1.749l-1.356-.936c-.558-.252 1.272 1.297-.314.194l.782.622-.985-.524c-.077.077.89 1.09-.317.191.108.12-.086.286.804.828.601.247-.514-.604.672.16-.986-.589-.006.274.249.579l-.474-.332c.155.182-.021.206.469.613l-.712-.502.677.576c.228.444-1.278-.887-1.195-.56l-.459-.542c.098.12-.613-.323-.443-.071l1.832 1.562c.206.308-.761-.505-.178.086l-.681-.708c-.197-.179-1.134-.72-1.223-.588.163.252.986 1.081 1.445 1.222-.04.074-.508-.139-.939-.548l1.007.939-1.913-.97-.97-.952-.077.074c-.77-.767-.702-.45-1.561-1.207-.185-.056.061.246.259.486 1.589.955 1.829 1.722 3.185 2.698.166.521-3.324-2.356-1.467-.505.376.231 1.282 1.133 1.02.684-.259.037 1.235 1.136.548.884-.428-.551-1.436-.915-2.067-1.716.425.358.416.16.317.037-.554-.339-1.318-1.057-1.438-.911.052.184-.025.326.674.85.749.592.034-.197.746.462.111.388-1.053-.496.213.643-.013-.2.785.388 1.297.801l.197.382-.474-.425c-.536-.067.85.788.539.893l-1.06-.693c-.804-.733.625-.003-.782-1.072-.163.09.499.7.033.533l-.187-.308c-.09.012-1.947-1.42-1.035-.367l.973.841.401 1.035c-.97-.85-.302.167-1.186-.825.64.413.841.052-.049-.801-1.245-.887.308-.03-.85-1.047-.169.145-1.327-.816-2.107-1.407l.286.428c.703.607.742.539 1.482 1.14-.351.025-.098.533.508 1.217-.407-.231-1.1-.844-1.106-.973.025.394-.274.545-.662.576 1.269.844.077.465 1.112 1.189.351.105 1.25.699 1.718 1.204l-.773-.61c.548.625-1.125-.715-.213.222-.201-.527-1.364-1.238-2.236-2.046.388.579-.631-.551-.752-.409l.678 1.41c-1.011-.532-.441.496-.558.712-.527-.305-1.475-1.263-1.731-1.318-.077.136 1.152.878.548.644l-.185-.194c.182.259-.942-.293.437 1.053l-1.026-1.029.185.327-.884-.828c-.829-.57-.071.326-.136.471l.693.508c.323.653-.416.206-.355.604l-.61-.576.271.456c-.566-.579-1.038-.838-.592-.311l-1.257-1.697 1.315 1.294c.564.45.545.114-.025-.462l.191.394c-.878-.777-.758-.847-1.291-1.429.006.067-.293-.12-.028.139-.36-.456-.373-.585-.296-.715l.789.702c-.751-.708-.893-1.026-.566-.97.964.702-.351-.776.031-.712.717.758 1.269 1.405 1.494 1.783.474.247.077-.129.554.117-.539-.573-1.389-1.402-1.633-1.845l.579.505c-.194-.385-1.047-1.14-.758-1.146l.958-.413.585.49c-1.152-1.183-.148-.761-.579-1.38.779.228-.105-1.007 1.022-.293-.086-.825-.216-1.564.391-1.842l.807.767c-.573-.591.554.345.49.16-.777-.456-.813-.826-1.306-1.306.853.332.329-.512-.142-1.161l.616.459c-.999-1.053.187-.499.566-.585.274.16.881.545.862.422-.903-.875-.788-.896-1.275-1.547l.985-.056c-1.047-1.558.222-1.453-.259-2.608l.767.478c-1.226-1.639.659-1.3.151-2.313l1.251.902c.496.12-.111-.555-1.051-1.121.496.12-.382-.767.742-.16.339.009-.478-.573-.566-.804.687.028.653-.155.591-.589l-.123.018.942.555c-.293-.336.61-.157-1.013-1.041 1.096.271-.278-1.143 1.142-.665l-.745-.573c.138-.278 1.176-.034.57-.696l.798.428-.752-.566c-.554-.924 1.337-.397 1.356-.93-.428-1.207.419-1.703.671-2.467l.317.191c-1.106-.924 1.564.163-.182-1.053.329.114.259-.129.862.259-.773-.665 1.115-.059.151-.936l.139.163c.872.126.025-.647.838-.576l.515.397c.686.222-1.226-.998.378-.216.021-.074-.767-.471-.739-.406.983-.283.302-1.516.271-2.362 1.183.009 2.683 1.343 1.688.354.32.126-.598-.332-.265-.169-.373-.373 1.888.674 1.109.151-.998-.456-.515-.348-1.106-.653.779.028 1.685.409 1.059-.197l.508.278c-1.318-1.004-.382-.93-1.95-1.993l.675-5.051c.967-1.312.822-3.074 2.387-4.165 1.54.243 1.521.197 1.118-.425l.49.222c-1.137-.499.009-.317-1.069-.81.466-.456.336-1.109.558-1.682.086.141 1.007.566.976.428l-.687-.406.324.108-1.075-.524c-.441-1.824 2.454-2.329 2.701-3.866.607-.157.339-.798.228-1.251 1.947-.514 3.582-1.111 2.822-2.516.004-.003 3.016 1.103 3.564 1.808zM204.018 89.275c.478.394.813.52 1.343 1.173l-1.343-1.173z"/><path d="M211.213 90.63c-.139-.126.228.12.311.176.006.071.37.443.105.265l-.416-.441zM212.149 90.092l.577.961-.577-.961zM214.521 90.803c.419.231.597.409.512.483l-.512-.483zM213.594 89.956l.592.277c-.377-.302.104.324-.592-.277zM216.203 89.34c-.009-.071-.296-.431.219-.095-.37-.219.394.619-.219.095zM216.169 88.077l.037-.074.527.466zM223.546 72.369l.194.222-.481-.281zM226.937 65.787c-.271-.243.493.166.573.185l-.573-.185zM226.191 61.053v.033l-1.022-.483z"/></g><g><path d="M87.498 123.56c.366-.009.566-.8.422-.2-.332.302-.6.514-.422.2zM37.317 75.19c2.591-1.518 1.386 1.352 3.317.647.16-.012-1.106 1.13-.671 1.023 2.186-1.019 2.279.915 1.879 2.908l-.36.286c-.068.373 1.134-.533 1.149-.231l-.585.591c.656-.616.57-.028 1.1-.453l-.86 1.183.785-.65c1.919-1.521.496.702 1.704.117l-.469.449c1.562-.545 2.064.305 3.049.502l-.982 1.017c.767-.749 1.139-.761 1.451-.758-.681.869.976-.462.754.16l-.185.16c.936-.702-.243.684.823-.209l-.502.715c1.13-1.069-.348.782.314.324l.213-.234c.372-.173-.105.452.182.357l-.117.142c.527-.071.074.693.896-.188-.582.782-.536.092-1.374 1.245 1.654-.148 2.313.807 3.133 1.549l-.582.957c.247-.098.456.123.955-.255l-.376.585c-.166.468 1.078-.819.862-.271l-.862.782c.785-.554.865-.271 1.238-.342l-.548.462c.915-.61.175.465.792.123l-.539.453c-.329.85 1.084-.998.955-.428l-.585.533c1.075-.733 1.115-.12 1.614-.247l-.209.203c.329.093.286.595.912.419-.129.312-1.201 1.214-.795 1.248.955-1.029.789-.046 1.747-1.334.043.354-.013 1.041.453.813-.456.302-1.084 1.337-1.331 1.266l-.465.745c-.409.394.009-.271-.447.293.117.043.742-.139.656.098.746-.48 1.993-1.515 2.362-1.407-.493.286-1.001 1.186-1.241 1.284l2.193-1.626c.129.028-.742.819-.376.668l.708-.582c-.083.151.582.071-.332 1.108-.339.432-.332.083-.582.53l.659-.074-.123.139c-.044.243.699-.148 1.118-.81-.04-.099-.548.631-.373.237.619-.512.955-.512 1.115-.379l-.739.653c.949-.594 1.402-.638 1.944-.754.456-.474-.908.789-.705.508-.336.939 1.497-.373.819.831-.117.043.625-.702.499-.567.083.197-.579.881-.247.715-.373.41.243-.025.453-.056.324-.246-.163.219-.283.182.455-.218 1.574-.342 1.315.539.246-.274 1.118-.807 1.164-.715l-.625.604c-.293.438.286.167-.209.715.872-.622-1.189.105-.437-.286-.44.57 1.232-.736.378.077.163.111.968-.468.549.243.052-.132-.943.766-.783.828l.703-.305.342-.157c.588-.61.102.252.674-.505-.453.527.585-.034-.394.958l-.785.773c.139.025.936-.705 1.337-.992l-.311.388c1.173-1.214.111.296 1.106-.548-.222.594.428.468-.209 1.312.49-.237 1.035-.558.942-.144l-.474.332c-.247.459.089.157.367.046-.194.163-.481.906-.777 1.441l1.454-1.327c-1.013 1.324 1.127-.41.253.834l-.94.819c-1.013 1.322 1.099-.653.758.117l.896-1.047c-.499.708.85-.296-.135.702.409-.295-.074.561.825-.437-.447 1.143 1.287.274-.163 2.221.201-.12.167.157.616-.364.437-.625-.481.284-.16-.117l.465-.376c-.105.317-.089.468-.961 1.189-.339.823 1.817-1.438 1.749-.776-.397.391-.52.566-.37.582l.819-.539c.034.345-.767 1.026-1.407 1.713.213-.019.308.129.838-.339l-.696.982c.499-.708.478-.336.687-.462l-.209.126c-.259.308.034.237.173.213l.48-.909.758-.397c-.659.653-.287.634-.278.785-.037.228.677-.505.687-.459-.327.351.092.203-.44.623-.139.086.249-.407-.096-.148-.185.317-.77.921-.218.595.409-.24 1.232-1.352 1.01-.755l-.733.592-.16.508.589-.607-.259.308c.662-.598.45.046 1.173-.644l-.209.749-.062.033c-.24.456.117.345.592.009l-.132.132.635-.163c-.299.592-2.141 2.354-1.257 1.725.163.108 1.284-.918 1.595-1.359-.139.65 1.093-.077.428 1.094l.604-.462c.141.592 1.472.013.628 1.491l-.915.958c.607-.465-.434.669.487-.237l.884-1.142c.502-.09.838.228.471.859l.598-.561c-.857.872-.819 1.158-.397.961l.524-.52-.443.631c.213-.132 1.121-1.081.758-.453l-.512.613c.546-.323 1.433-.899 1.137-.308l-.625.887.795-.73c-.209.693-.117.899-.684 1.648 1.971-1.269 2.624-.776 2.987-.212l-.397.388c-.228.496.733-.641.554-.274l-1.235 1.297c-.222.601.893-.474 1.186-.545.514-.508-.419.249.24-.401.197-.167-.139.653.647-.123l-1.176 1.213.478-.283c-.749 1.066-1.885 1.374-2.837 2.664l.221-.031c-.69.93-1.161.687-1.183 1.222.493-.292 1.682-1.361 1.919-1.808.44-.003 1.913-1.808 2.095-1.5-.376.533-.305-.08-.878.623-.493.758.573-.136.465.19.173-.413 1.032-1.127 1.251-1.207-.234.502-.804.684-.706.94l1.125-1.084c1.059-.989-.083.465.779-.255-.638.791-1.796 1.53-1.944 2.082.635-.733 1.152-.73 2.042-1.882-.114.274-.631.841-1.103 1.226-.305.542 1.494-1.041.201.397l.724-.687-.622.937c.083.108 1.241-.681.197.403.139-.083.317.176.946-.665.299-.592-.684.406.206-.69-.689.924.305.08.647-.123l-.385.431c.206-.12.225.08.689-.354l-.579.653.659-.595c.493-.135-1.026 1.174-.662 1.168l-.616.363c.136-.08-.376.589-.093.468l1.79-1.626c.348-.157-.579.705.096.204l-.811.582c-.203.173-.825 1.057-.671 1.177.286-.124 1.226-.835 1.389-1.291.083.052-.157.508-.622.884.357-.052.576-.653 1.062-.887l-1.099 1.842-1.075.85.086.099c-.869.668-.505.659-1.361 1.426-.059.191.286-.012.557-.172 1.069-1.513 1.941-1.62 3.031-2.883.582-.086-2.627 3.107-.554 1.469.253-.361 1.26-1.164.758-.967.044.286 1.263-1.109.983-.428-.613.363-1.007 1.374-1.897 1.903.394-.391.173-.416.034-.332-.373.53-1.173 1.214-1.007 1.371.213-.018.376.092.955-.561.65-.696-.225-.077.505-.717.434-.05-.536 1.044.72-.114-.228-.018.422-.77.878-1.245l.422-.148-.468.437c-.071.558.869-.776.982-.431l-.754 1.016c-.801.736-.009-.669-1.183.656.105.191.773-.413.597.056l-.342.151c.013.093-1.543 1.845-.385 1.053l.918-.906 1.14-.259c-.918.906.19.355-.884 1.143.44-.622.034-.9-.896-.086-.961 1.189-.043-.339-1.155.73.17.213-.872 1.297-1.515 2.036l.481-.228c.659-.654.582-.712 1.229-1.405.046.388.613.206 1.355-.332-.243.4-.902 1.05-1.05 1.031l.687.841c.884-1.253.52-.003 1.275-1.016.102-.37.724-1.257 1.269-1.685l-.647.746c.671-.496-.746 1.115.252.268-.576.132-1.312 1.293-2.171 2.113.631-.323-.582.604-.416.764l1.549-.502c-.53 1.035.588.582.831.749-.298.539-1.296 1.445-1.337 1.725.16.114.89-1.149.677-.508l-.203.175c.274-.163-.24 1.023 1.143-.314l-1.063.992.351-.154-.85.862c-.558.85.379.145.548.243l.502-.708c.699-.259.271.514.712.514l-.582.601.484-.234c-.592.558-.829 1.06-.286.635l-1.771 1.155 1.312-1.296c.443-.573.071-.61-.52-.056l.425-.148c-.78.875-.872.724-1.472 1.235.077.006-.102.317.16.059-.474.332-.626.32-.783.203l.712-.782c-.72.739-1.072.841-1.047.465.693-.982-.856.25-.828-.182.794-.677 1.475-1.188 1.885-1.376.234-.496-.157-.114.077-.616-.601.512-1.457 1.331-1.95 1.518l.52-.566c-.422.144-1.204.97-1.244.631l-.589-1.204.512-.561c-1.266 1.06-.875 0-1.562.351.194-.841-1.192-.124-.443-1.238-.97-.098-1.857-.145-2.243-.9l.862-.718c-.668.499.379-.532.157-.505-.49.754-.933.702-1.478 1.133.339-.874-.644-.501-1.408-.151l.52-.57c-1.226.831-.634-.348-.761-.792.185-.265.628-.838.484-.856-1.007.751-1.032.616-1.79.954l-.071-1.149c-1.827.668-1.706-.751-3.08-.613l.573-.699c-1.965.804-1.543-1.211-2.766-1.004l1.112-1.069c.157-.508-.665-.074-1.374.761.157-.508-.939.138-.175-.887.021-.373-.705.32-.988.329.052-.754-.17-.779-.7-.881l.019.145c.267-.209.72-.681.705-.831-.416.194-.163-.73-1.306.72.379-1.103-1.42-.141-.77-1.512l-.739.594c-.327-.274.059-1.327-.777-.939.124-.228.669-.548.573-.702l-.736.591c-1.143.209-.345-1.66-.968-1.909-1.475-.059-1.98-1.214-2.864-1.83l.265-.259c-1.232.782.382-1.623-1.284-.277.175-.308-.12-.339.416-.819-.893.533.071-1.226-1.103-.585l.213-.074c.262-.881-.773-.32-.579-1.161l.542-.373c.36-.628-1.364.86-.207-.499-.083-.052-.668.604-.585.607-.222-1.161-1.747-1.038-2.748-1.432.213-1.263 2.027-2.205.705-1.629.201-.281-.493.474-.246.2-.499.213 1.124-1.682.373-1.109-.706.838-.493.376-.955.857.169-.816.782-1.59-.04-1.223l.419-.403c-1.411.902-1.152-.052-2.692 1.078l-5.852-3.33c-1.312-1.737-3.416-2.575-4.315-4.799.665-1.448.613-1.448-.222-1.386l.385-.373c-.875.881-.37-.188-1.223.637l-1.811-1.549c.188-.006.93-.696.764-.748l-.659.462.213-.265-.908.789c-2.251-.656-2.03-3.874-3.724-5.051.003-.712-.823-.844-1.383-1.02.009-2.276-.098-4.21-2.048-4.46 0 0 2.357-2.19 3.342-2.279zM87.19 123.43c.388-.49.486-.859 1.161-1.361l-1.161 1.361z"/><path d="M88.056 115.463l.182-.314c.077.003.474-.333.293-.071l-.475.385zM87.412 114.341l1.047-.468-1.047.468zM88.136 111.892c.252-.409.443-.573.53-.465l-.53.465zM87.215 112.749l.296-.589c-.33.352.357-.058-.296.589zM86.497 109.86c-.08-.006-.484.234-.105-.25-.246.351.694-.305.105.25zM85.077 109.662l-.083-.052.526-.465zM68.142 96.696l.281-.118-.394.391zM61.373 90.323c-.332.17.29-.434.329-.508.127.033-.496.465-.329.508zM55.832 88.881l.039.015-.788.813z"/></g><g><path d="M123.757 285.634c1.001.53.111-1.183.811.129-.377.272-.737.401-.811-.129zM234.157 124.73c-4.638.677-7.244-4.146-11.51-4.454-.45-.117.792-1.364-.274-1.537-4.127-.142-9.4-2.439-13.29-5.778l.404-.348c-.767-.585-2.215.502-3.049.012l.298-.776c-.459.795-1.731-.132-2.276.397l-.431-1.66-.751.816c-1.906 1.728-3.53-.773-5.775.132l.249-.622c-3.48 1.059-7.42.314-11.036.419l.148-1.405c-.247 1.047-1.359 1.18-2.323 1.275-.397-1.186-1.66.794-2.763.357l.098-.249c-.828 1.213-1.235-.577-1.894.856l-.539-.826c-.327 1.58-1.22-.714-1.888.124l.033.314c-.625.428-.998-.33-1.586-.019l-.065-.178c-1.38.515-2.258-.29-2.135.909-.566-.927 1.331-.533.453-1.885-4.553 1.667-9.376 1.315-13.83 2.957l-1.201-.807c-.401.357-1.667.681-1.922 1.395.145-.074-.447-.524-.705-.517-.949-.216-.551 1.531-1.598 1.248.274-.404.293-.819.046-1.217-.517 1.118-1.589 1.25-2.408 1.796l.117-.77c-.681 1.291-1.897.286-2.562 1.161l.105-.749c-1.697-.416.059 1.5-1.322 1.352l-.025-.807c-.751 1.395-2.624 1.746-3.483 2.735l-.065-.292c-1.078.708-2.433.936-3.459 2.06-.585-.061-.554-1.629-1.673-.795.641 1.251-1.811 1.534-.401 2.615-1.118.296-3 .622-3.452 1.383.213-.696-1.318-1.263-.508-1.792l-1.069-.431c-.173-.551.779-.157.225-.693-.419.265-1.426 1.387-1.931 1.377-.394 1.152-.311 2.899-1.5 3.674.324-.764-1.152-1.152-.862-1.556l-.219 3.41c-.332.344-.678-.865-1.026-.145l.126 1.047c-.237-.028-1.352 1.475-2.301.462-.481-.314.452-.708-.253-.795-.693.548-.452.961-1.136 1.512l-.124-.138c-.585.187-1.01 1.512-.059 1.749.345-.206-.613-.582.099-.613.148.891-.512 1.685-1.186 2.221l-.299-1.011c-.271 1.571-1.026 2.581-1.756 3.715.401.52-.379-1.217-.009-1.069-1.916.317-1.872 3.058-3.853 2.886.108-.219.727.625.591.496-.69.419-1.306-.305-1.484.268-.44-.397-.379.554-.589 1.099.096.499-.28-.09-.015-.487-.173.918-1.494 3.755-3.206 4.479.29.234.305 1.719.025 1.984l-.542-.703c-.619-.074-.807 1.047-1.405.604.228 1.343 1.479-3.055 1.321-1.651-.727-.259-.021 2.125-.736 1.152-.499.623-.265 1.836-1.371 1.879.24-.074-.487-1.276-.862-.746-.635.955.098.518-.283 1.392l-.108.659c.631.561-.752.684.259.967-.631-.332-.736 1.485-1.756.536l-.761-.801c-.265.419.378 1.318.514 1.897l-.505-.172c1.291 1.078-.881.795-.219 1.996-1.222.363-1.651 1.965-2.682 1.829.033.98.194 1.928-.546 2.501l-.246-.72c-.696.215-.389.585-.413 1.176-.154-.24-1.386.45-2.205.696.044.949.955 1.177 1.387 1.534-1.778-.228-.148 2.439-1.891 2.464-.068-.345-.151-1.398-.841-1.041-1.802-.173.361 1.86-.905 2.482l1.355.401c-1.01.043-.117 1.824-1.309 1.078.255.561-1.078.973.188 1.46-1.95 1.146-1.728 4.164-4.112 4.398.124.351-.295.912.385 1.041.835-.142-.302-.807.221-.77l.45.536c-.459.437-.696.843-1.564-.111-1.176.949 1.716 2.131.718 3.505-.499-.265-.734-.221-.798.271l.616 1.195c-.542.936-1.392.16-2.285-.124-.03.604-.29 1.263.299 1.731l-1.352.308c.977-.234.397.622.536.949l-.139-.327c-.416-.018-.388.696-.382 1.053.588.086 1.023-.487 1.299-.789l.422 1.312c-.85-.388-.921.702-1.164 1.103-.348.443.619.782.545.918-.468-.111-.345.782-.865.222-.098-.209.576-.259.259-.653-.453.228-1.25-.025-.881.819.271.628 1.811.333.927 1.146l-.742-.727-.763.795.807.247-.422-.006c.776.487-.188 1.454.715 1.879l-.983 1.281-.052-.105c-.551.462-.32 1.275.185 1.848l-.179-.062c-.102.296-.052 1.035.382 1.503-.714.653-3.166-.284-2.217.758-.062.801 1.383 1.466 1.95 1.238-.73 1.318.447 3.061-1.007 4.207.317.24.542.135.69.566-.579 2.027.474 4.343-1.383 5.902-.283-.61-.835-.068-1.318-.074.693.524-.856.579.41.795.773-.031 1.137.025 1.509-.542.163 1.232.558 3.074-.179 3.758.327-.339.579-.08.832.185-1.226-.08-1.34.838-.853 1.515l.742.074-.727.468c.259.259 1.577.228.918.93l-.779.24c.662.684 1.762 1.595 1.186 2.403l-1.026.708c.142.32.826.813 1.093.215-.548 1.349-.573 2.205-1.472 2.73 2.443 2.014 2.545 5.193 3.336 7.694l-.564.031c-.324.782 1.044.154.792.702-.576-.111-.983.758-1.759.357-.305 1.109 1.284 1.053 1.7 1.621.727-.068-.594-.394.339-.487.281.049-.191 1.472.924 1.356l-1.663.326.681.468c-1.05 1.06-2.683-1.121-4.016.031l.324.524c-.967.838-1.672-1.207-1.67.339.706.505 2.388.623 2.711-.049.644 1.202 2.702-.08 2.966 1.282-.52.536-.434-1.029-1.235-.536-.686.875.816 1.14.672 1.793.231-.746 1.438-.524 1.744-.185-.32.819-1.122-.148-.976.85.656-.025 1.349.708 1.568-.179 1.472-.086-.114 1.103 1.088 1.281-.878.629-2.498-.271-2.692.949.881-.462 1.605.888 2.83-.129-.157.493-.871.788-1.521.678-.409.794 2.061.838.29 1.675l.992-.136-.841 1.134c.052.56 1.983 1.084.524 1.602.221.098.708 1.226 1.463.413.252-.912-1.103-.505.021-1.392-.828.893.628.918 1.176 1.158l-.505.283c.326.142.471.727 1.127.623l-.755.437.937-.098c.866.758-1.322.838-.631 1.657l-.98-.431c.219.098-.394.751.086 1.084l2.513-.351c.576.363-.708.61.29.77l-1.217-.259c-.292.012-.988 1.016-.625 1.713.481.332 1.867.505 1.922-.382.188.332-.018 1.041-.69 1.029.647.665.733-.493 1.516-.037-.345.512-.604 1.725-1.042 2.625l-1.558-.099.228.493c-1.272-.136-.576.702-1.768.874.009.425.551.653.98.838 1.14-1.836 2.741-.105 4.06-1.195 1.025 1.06-3.136 2.822-.201 2.889.268-.443 1.679-.45.859-1.016.24.893 1.709-.308 1.571.985-.927-.351-1.075 1.639-2.427 1.127.508-.221.08-.795-.129-.875-.391.665-1.491.788-1.075 1.639.394.438.758 1.14 1.466.567.785-.512-.471-.727.512-.906.813.813-.188 1.682 1.5 1.152-.554-.486.175-1.152.742-1.491l.832.431-.631.215c.416 1.282 1.207-.32 1.832.758l-.684 1.164c-1.091.363-.733-1.718-2.073-.579.455.703 1.371.419 1.466 1.3l-.643-.278c.129.271-1.624 1.824.249 2.008.813.185.613-.228 1.161-.597.982.949 1.768.869 2.366 1.484-1.143.628.823 1.275-.804 1.312.333-.807-.896-2.279-2.196-1.947-.946 1.263-.468-.967-1.916-.326.638.887-.628 1.713-1.318 2.415l.893.351c.831-.431.576-.751 1.337-1.318a3.118 3.118 0 0 0 2.815 1.749c-.117.597-.927 1.06-1.294.727 1.109.998 1.95 2.316 2.588 3.61.616-1.688 1.211.998 1.798-.302-.194-.807.253-1.99 1.02-2.107.2.419-.518.413-.647.77.973-.074-.459 1.577.872 1.183-1.164-.72-1.549.998-2.596 1.577 1.096.339-.662.518-.071 1.287l3.049 1.59c.212 1.657 2.572 2.254 3.502 3 .062.844-1.188 1.534-.825 2.156.637.517.539-1.448 1.026-.209l-.268.117c.478.013 1.062 2.132 2.606.93l-1.241.838.702.148c-.305.358-.388.85-.874.838-.09 1.25 1.299.93 1.94 1.429l.16-.998c1.472.394 1.623 1.663 2.827 2.31l-.548.635.912.129c-.643.512-.403 1.417.33 1.152l-2.856.24c-.136-.776 1.115-.37 1.349-1.269.209-.77-.865-1.405-1.534-.918.308.389.441.259.912.271-.613 1.016-1.137.499-1.91.862.225.129.278.641.554.394-.739.111-1.186-.154-1.839-.689.724.018.228-.758.607-.875-.708.751-1.528.456-2.125-.45.228-1.38-1.99-.715-2.689-1.768 1.081-.431 2.116-.647 2.936-.481-.209-.874-.641-.529-.847-1.404-.804.339-1.808 1.035-2.883.721l.493-.592c-.946-.302-1.744.512-2.458-.401-1.266-1.515-2.729-2.895-3.474-4.238l.533-.554c-1.734.431-2.137-1.799-3.379-2.224-.585-1.978-3.121-2.871-2.658-4.448-2.393-2.396-5.107-4.207-6.422-7.515l1.217-.043c-.98-.136.376-.696-.04-1.152-.452 1.078-1.368-.179-2.159-.228.061-1.836-1.651-3.166-2.969-4.084l.659-.394c-1.916-.628-1.534-2.717-2.085-4.38.203-.308.724-.881.419-1.313-1.556-.357-1.7-.838-3.028-1.817-.524-.9-.865-2.55-.591-3.746-2.668-3.16-2.653-7.331-4.716-10.977l.804-.481c-3.215-3.345-1.952-8.476-3.055-11.705l1.555.16c.397-1.078-.576-2.322-1.648-1.971.397-1.084-.936-2.593.283-3.333.207-1.084-.81-1.281-1.078-2.174.431-2.187.243-2.969-.191-5.021l-.055.505c.351.228 1.007.259 1.072-.247-.576-.764.671-2.753-1.306-2.07 1.306-2.107-.281-5.156 1.407-7.14-.52.124-.558-.425-.862-.684.203-1.934 1.466-3.782.807-5.445.286-.259.785.628.93-.142-.132-.493-.644-.117-.85-.739-.748-3.345 2.02-6.012 2.745-8.711.612-5.057 2.729-9.948 4.118-14.581l.314.203c-.502-2.014 3.148-2.68 1.873-4.731.496-.184.865-1.207 1.361-.628-.249-1.595 2.588-2.667 2.4-4.91l-.059.505c1.629-1.207 1.491-3.228 3.102-4.546l.231.893c.961-.271-.406-2.427 1.279-1.799.2-.382-.589-.77-.675-.505 2.668-3.363 5.258-7.14 7.793-10.95 2.917-1.721 2.347 1.867 3.034-.936.385.08-.4-.579-.108-.351.287-1.084 2.437.237 2.206-.911-.965-.558-.142-.767-.601-1.253 1.805-.97 2.711-.554 3.179-2.289l.308.499c.314-2.301 2.556-2.923 2.562-5.298 7.463-6.955 15.281-12.887 24.536-17.033 9.077-3.554 18.53-6.997 28.555-7.18 2.514 1.318 2.643 1.272 5.15.469l-.052.542c.037-1.248 1.781-.249 1.956-1.451 3.693.154 7.093-1.053 10.882-.32-.607.065-.946 1.041-.24 1.045l.779-.703.105.351c.49-.12 1.066-.674.585-1.127 9.841-.271 18.73 3.647 27.45 6.859 1.925 1.18 5.073 1.713 7.469 2.264 5.587 5.017 10.247 9.2 17.076 11.784-.016.008-2.683 2.159-5.538 1.388zM122.66 284.839c.188-.659-.2-1.441.767-1.694l-.767 1.694z"/><path d="M112.031 266.304c-.155.098.018-.389.058-.505.185.16.712 0 .592.363l-.65.142zM109.262 262.066c.484-.278 1.475.29 1.906.745l-1.906-.745zM108.279 257.039c.142-.579.416-.635.721-.209l-.721.209zM107.047 257.5c-.246-.295-.095-.634.059-.961-.388.284.776.537-.059.961zM103.231 248.205c-.148-.185-.773-.437-.329-.924-.268.425 1.121.708.329.924zM100.456 244.441l-.185-.332c.105-.357.597-.265.746-.08l-.561.412zM100.721 162.418l-.01.573-.449-.326zM124.973 133.804c.194-.589.597.191.715.203-.327.33-.277-.64-.715-.203zM141.144 120.68l-.139.086-.431-1.05z"/></g></g><path fill="#EC1C24" d="M452.88 280.86c0-.148.013-.351.037-.462.271-1.453.604-3.123.628-3.271.789-2.538.696-3.167.702-5.323-.006-.012-.172-6.868-.585-10.805-.044-.85-.08-1.54-.08-2.181 0-.949.098-1.725.221-2.433-1.638-.388-2.686-1.86-2.673-3.228.013 0-.013-.031-.013-.204.037-1.441.998-2.649 2.477-2.945 4.423-.973 9.444-1.885 14.039-1.885.018 0 .154-.012.24.013.949 0 1.836-.025 2.711-.025 3.351-.086 6.567.45 9.444 3.992.77.9 1.164 2.02 1.152 3.092-.32 5.286-6.875 9.844-12.37 11.877-.049.006-3.006.758-4.484.9h-.665c-.419 0-.881-.025-1.318-.049.062 1.897.08 4.448.08 4.472-.08 2.994-.228 7.472-1.343 9.505-1.226 1.867-3.221 1.706-3.85 1.768-.179.012-.327.012-.45.012-1.011-.072-3.506-.011-3.9-2.82m8.92-19.558c4.041-1.029 8.551-2.742 10.128-4.22.56-.48.61-.782.61-.789 0-1.164-2.581-1.737-5.871-1.675-1.799 0-3.185.148-5.298.53v.172s.124 2.384.345 5.082h.013c.018.308.049.616.073.9M560.456 248.39c3.714.893 6.893 2.335 9.073 5.033.438.862.998 2.489 1.103 4.096 0 .141-.018.154-.018.302v.481c.049 1.011-.382 2.698-2.304 4.571-2.624 2.637-4.953 2.563-6.074 3.357-1.897.758-3.08.85-4.238 1.017 1.577 1.108 2.975 2.421 4.207 4.201 1.374 2.144 6.068 6.431 7.103 9.783l.148.554-.271.529c-.911 1.657-2.63 2.39-4.164 2.403h-.468l-.382-.247c-.074-.049-2.217-1.503-5.088-4.453-1.269-1.361-2.341-3.419-3.278-4.263-2.71-2.655-5.827-5.168-7.805-6.185-.105.518-.123 1.029-.123 1.922v.523c0 2.169-.647 3.98-1.065 5.421v.086c-.049 2.649-1.805 4.472-3.333 5.692l-.141.117-.209.08a3.55 3.55 0 0 1-1.276.246c-1.472-.025-2.544-.912-3.172-1.872l-.203-.308-.031-.394a10.16 10.16 0 0 1-.025-.64c.012-2.6.887-4.626 1.441-6.468.363-2.495.468-4.928.468-7.392 0-3.105-.172-6.259-.172-9.604 0-.653.006-1.33.012-2.001-.973-.308-2.242-1.011-2.396-2.908 0-.813.29-1.589.77-2.402.862-1.097 1.38-.924 2.169-1.195a26.973 26.973 0 0 1 2.84-.357c2.199-.197 4.983-.29 7.688-.29 3.848.004 7.433.146 9.214.565m-12.142 11.809v1.165l-.068.172a5.936 5.936 0 0 0-.191 1.25c3.068-1.059 6.394-1.115 8.853-2.132l.203-.079.179-.019c1.663-.098 3.745-1.706 4.01-2.809.062-.437.136-.912.136-1.245-.025-.468-.074-.468-.234-.579-1.823-1.342-4.177-1.725-6.912-1.725-1.94 0-4.029.197-6.111.271.011 1.467.135 3.906.135 5.73M617.875 254.396c-.32 2.834-2.661 3.4-4.399 4.841-2.606 1.855-2.292.937-4.743 2.273-2.624 1.361-6.98 3.16-11.366 5.082.179.074.351.172.548.252 1.171.548 2.434.998 3.302 1.484 2.174 1.287 4.411 2.526 6.622 3.857 1.848 1.078 3.893 2.143 5.747 3.375 1.103.69 3.333 2.538 3.333 3.628 0 1.091.37 2.483-1.109 3.394-.684.641-1.571.838-2.335.838-3.277-.092-7.306-2.871-8.476-3.419-1.897-.979-3.622-2.027-5.212-2.815-1.46-.529-2.698-1.368-3.758-1.952.142 1.127.53 2.569.554 4.072 0 1.01-.222 2.181-1.035 3.154-.782.936-1.817 1.528-2.876 1.528-2.489-.234-3.407-2.144-3.672-3.555-.209-1.521-.339-3.727-.339-5.637 0-.677.013-1.312.055-1.885-.265-1.873-.012-2.193-.462-2.439-1.053-.906-1.251-2.12-1.257-3.216.018-1.638.48-3.302 1.417-4.552.375-.56.326-.382.363-1.337 0-.566-.216-4.977-.278-6.049v-.123a1.148 1.148 0 0 1 0-.351c.037-1.059.265-2.143 1.053-2.987.832-.887 2.039-1.195 3.314-1.189.049 0 .179-.006.265 0 .819.031 1.633.198 2.267.844.628.677.69 1.441.69 1.971 0 .481-.049.875-.099 1.269a.28.28 0 0 1 .037.123c0 .154.025.345.049.573.025.474.074 1.103.129 1.774.037.505.105 1.065.154 1.564.592-.314 1.189-.684 1.171-.671 1.959-1.46 11.643-5.557 14.526-6.555 1.115-.37 1.873-.653 2.797-.659 1.479-.086 2.451.635 2.735 1.663l.288 1.832zm-22.818 5.064v-.013.013zm-6.462-3.931c-.006-.018-.006-.03-.018-.061.012.031.012.043.018.061m-.043-.159c-.013 0-.013 0-.013-.013.001.013.001.013.013.013m-.025-.062c-.018-.037-.018-.062-.025-.098.001-.001.001.036.025.098m4.633-1.984M509.548 251.612c1.387 1.342 2.323 2.901 3.333 4.337 1.164 1.694 7.663 12.16 8.674 14.92.714 2.033 3.93 8.624 4.287 9.24.265.462.474.998.474 1.614 0 1.022-.622 1.916-1.386 2.439-.53.407-1.201.628-1.749.604-1.023-.037-1.509-.37-1.805-.382l-.326-.062-.271-.216c-2.92-2.569-3.246-6.203-4.836-7.324-2.384.246-4.848.271-7.349.271-1.214 0-2.434-.013-3.622-.013-1.405 0-2.779.013-4.103.074-1.195 2.563-2.822 5.495-3.653 6.591-1.004 1.195-2.409 1.491-3.53 1.491-.296 0-.567-.025-.819-.044-1.448.019-2.508-1.571-2.55-2.088-.111-.283-.326-.801-.326-1.491 0-.666.215-1.405.659-2.107.795-1.269 2.002-2.772 3.628-5.791 1.614-2.975 5.101-11.378 6.118-13.035.739-1.146 1.645-3.247 2.23-4.842.536-1.361.394-2.557 1.614-4.115.579-.752 1.51-1.356 2.588-1.356 1.069.016 1.962.551 2.72 1.285m-3.469 15.043a26.804 26.804 0 0 0-2.143 3.955c.961-.099 2.008-.234 3.166-.234a.24.24 0 0 1 .136 0c1.91-.16 3.61-.191 5.298-.314-.628-1.066-1.417-2.507-2.045-3.961-.659-1.54-1.405-2.895-2.169-4.275-.517 1.478-1.207 3.245-2.243 4.829M630.787 284.162c-.616-.271-1.109-1.417-1.004-1.836 0-.203.018-.271.018-.314v-.062c-.025-.166-.018-.289-.018-.289-.031-1.368 1.201-2.55 2.717-2.871 1.602-.369 4.718-.499 4.718-.505 2.982-.284 6.08-.579 8.6-1.072l1.817-.64c.524-.086 1.244-.85 2.446-1.325v-.012a5.65 5.65 0 0 0 .314-.228 8.57 8.57 0 0 0 .979-.887c.703-.702 1.263-1.639 1.282-1.848 0-.246 0-.431-.025-.64-.265-1.897-.961-1.947-3.684-3.056l-3.413-.905c-3.179-.807-6.967-2.212-8.354-4.811a5.011 5.011 0 0 1-.431-2.058c.012-1.454.468-2.637.524-3.308l.018-.117.025-.129c1.245-3.85 5.125-6.043 8.945-6.604.911-.037 2.051-.117 3.185-.117 1.226 0 2.408.074 3.499.505 1.281.529 1.743.616 2.667 1.312.049.191 1.595.942 2.131 2.901.013.179.037.327.037.554.037 1.096-.888 1.83-1.011 1.916-.45.481-1.245 1.134-2.415 1.134-.296 0-.592-.037-.942-.154-.265-.117-1.189-.111-2.101-.961-.056-.142-2.434-1.627-3.561-1.534-.185 0-.314.025-.437.062-2.279.856-.795.135-2.027.881-.234.074-.795 1.011-.751 1.848 0 .172.018.332.043.493h.012c.037.049.142.148.284.259.302.197.782.456 1.324.69 1.115.481 2.403.869 3.198 1.127 2.113.721 4.534.819 6.893 2.519 2.181 1.3 4.928 2.858 4.916 6.863-.776 6.604-7.146 9.425-10.694 10.614-4.349.992-9.179 1.645-13.737 2.261-.062.013-2.982.69-4.639.702-.363-.05-.597.098-1.348-.358"/><path d="M172.869 218.322h21.249v15.006h-38.969v-68.181h17.72v53.175zM217.614 180.16v11.39h19.98v15.018h-19.98v11.754h21.064v15.006h-38.781v-68.181h38.781v15.012h-21.064zM317.599 195.259c-.185 9.948-.905 18.443-6.967 26.944-6.69 9.314-16.724 13.38-28.121 13.38-21.422 0-36.342-14.55-36.342-35.987 0-22.153 15.006-36.703 36.976-36.703 14.015 0 24.869 6.326 30.745 19.072l-16.817 7.06c-2.439-6.517-7.595-10.854-14.741-10.854-11.658 0-17.72 11.125-17.72 21.524 0 10.571 6.333 21.339 17.991 21.339 7.688 0 13.565-3.98 14.285-11.852h-14.464V195.26h35.175zM397.691 197.968c0 22.066-15.826 37.614-37.706 37.614-21.881 0-37.704-15.548-37.704-37.614 0-20.612 18.083-35.076 37.704-35.076 19.62.001 37.706 14.465 37.706 35.076zm-56.963.099c0 11.754 8.68 20.341 19.257 20.341 10.577 0 19.263-8.587 19.263-20.341 0-9.413-8.686-18-19.263-18-10.578.001-19.257 8.588-19.257 18zM422.751 218.322h21.246v15.006h-38.969v-68.181h17.723v53.175zM469.685 221.476l-4.706 11.852h-18.807l26.224-68.181h19.349l25.682 68.181h-18.899l-4.43-11.852h-24.413zm12.389-35.261h-.185l-7.325 21.708h14.742l-7.232-21.708zM600.965 165.147h25.14c18.985 0 34.632 14.92 34.632 34.09 0 19.171-15.739 34.09-34.632 34.09h-25.14v-68.18zm17.723 53.175h3.98c10.577 0 19.62-5.791 19.62-19.084 0-12.209-8.045-19.078-19.441-19.078h-4.158v38.162zM589.224 2.001h-17.717v204.838h-.185l-32.458-41.692h-17.723v68.181h17.723V191.55h.179l32.464 41.778h17.717z"/><path d="M651.725 229.459c0-2.883 2.267-5.174 5.138-5.174 2.87 0 5.137 2.292 5.137 5.174 0 2.883-2.267 5.174-5.137 5.174-2.871.001-5.138-2.29-5.138-5.174zm1.115 0c0 2.31 1.805 4.054 4.023 4.054 2.217 0 4.016-1.744 4.016-4.054 0-2.322-1.799-4.053-4.016-4.053-2.218 0-4.023 1.731-4.023 4.053zm6.413 2.662h-1.233l-1.25-2.143h-.942v2.143h-1.121v-5.372h2.612c1.238 0 2.089.222 2.089 1.639 0 .998-.512 1.528-1.466 1.59l1.311 2.143zm-1.91-3.105c.598 0 .967-.136.967-.715 0-.591-.714-.591-1.244-.591h-1.238v1.306h1.515z"/></svg>